# xmcd
#
# Track frame offsets:
#	150
#	18401
#	35151
#	51974
#	70068
#	86114
#	102227
#	126794
#	146261
#	164471
#	186128
#	211823
#
# Disc length: 3005 seconds
#
# Revision: 0
# Processed by: cddbd v1.5.2PL0 Copyright (c) Steve Scherf et al.
# Submitted via: EasyCDDAExtractor 9.0.0.1
#
DISCID=a70bbb0c
DTITLE=Arthur Neilson - Hell of a nerve
DYEAR=2006
DGENRE=Blues
TTITLE0=You sure are pretty
TTITLE1=Hell of a nerve
TTITLE2=Daddy long legs
TTITLE3=Start to Bleed
TTITLE4=Too blind to see
TTITLE5=Spank me
TTITLE6=Homesick
TTITLE7=So many ways
TTITLE8=Sagittarius
TTITLE9=All the angels in the sky
TTITLE10=Something you just can't get
TTITLE11=Guitars on parade
EXTD=
EXTT0=
EXTT1=
EXTT2=
EXTT3=
EXTT4=
EXTT5=
EXTT6=
EXTT7=
EXTT8=
EXTT9=
EXTT10=
EXTT11=
PLAYORDER=
